Coordinates
version=1
nRows=19
nColumns=24
inDegrees=yes

Units are S.I. units (second, meters, Newtons, ...)
Angles are in degrees.

endheader
time	pelvis_tilt	pelvis_list	pelvis_rotation	pelvis_tx	pelvis_ty	pelvis_tz	hip_flexion_r	hip_adduction_r	hip_rotation_r	knee_angle_r	ankle_angle_r	subtalar_angle_r	mtp_angle_r	hip_flexion_l	hip_adduction_l	hip_rotation_l	knee_angle_l	ankle_angle_l	subtalar_angle_l	mtp_angle_l	lumbar_extension	lumbar_bending	lumbar_rotation
      1.68800000	      1.48978592	      1.01439813	     -4.81187670	      1.31543118	      1.01571573	      0.32500122	     21.43592949	     -5.78807009	     -5.78615526	    -76.45571334	     -2.20264688	     -1.17171963	      2.04257333	     11.72450065	      2.03141532	     -7.01334619	    -14.88117543	      0.66213344	    -13.74174699	     -6.72554636	    -10.28228308	     -3.71704568	      1.07166880
      1.69216667	      1.53776512	      0.86949211	     -4.69308330	      1.32017163	      1.01675829	      0.32469647	     22.06692849	     -5.54486820	     -5.90997381	    -76.19498776	     -1.72343337	     -1.12704887	      2.07137424	     11.23531871	      1.96209628	     -6.87171013	    -14.60934764	      0.71693214	    -13.76314530	     -6.74050629	    -10.38059527	     -3.52206511	      1.04273706
      1.69633333	      1.72211592	      0.65899130	     -4.39955784	      1.32491223	      1.01807473	      0.32389231	     22.45951243	     -5.35696844	     -6.24946580	    -75.80566723	     -1.30547423	     -1.02478764	      2.16481850	     10.60557772	      1.89598334	     -6.46256521	    -14.33453317	      0.77677864	    -13.88763248	     -6.80806650	    -10.65551548	     -3.22077447	      0.81952208
      1.70050000	      1.76575786	      0.52897234	     -4.28527083	      1.32961177	      1.01904480	      0.32359862	     23.07264181	     -5.13980629	     -6.37458738	    -75.45446096	     -0.81139923	     -0.97345939	      2.18827871	     10.11893736	      1.83510334	     -6.32291279	    -14.04666244	      0.81699500	    -13.91589747	     -6.82480547	    -10.75571584	     -3.04399488	      0.78783853
      1.70466667	      1.94899542	      0.31717375	     -4.02072497	      1.33434942	      1.02030808	      0.32287247	     23.43642880	     -4.94904814	     -6.69525272	    -74.96281538	     -0.40129194	     -0.81858697	      2.23152304	      9.48184495	      1.74555032	     -5.96232502	    -13.76034376	      0.89692886	    -14.00081991	     -6.87061553	    -11.01711854	     -2.75390899	      0.66423951
      1.70883333	      1.99916855	      0.19639920	     -3.90324582	      1.33901457	      1.02120273	      0.32257500	     24.01618894	     -4.75224695	     -6.83033605	    -74.52637277	      0.07397598	     -0.85167712	      2.24583598	      9.00207889	      1.68914672	     -5.82106683	    -13.48511467	      0.93282236	    -14.04586731	     -6.88891929	    -11.13010266	     -2.57437204	      0.59059493
      1.71300000	      2.16842835	     -0.01277329	     -3.59784268	      1.34376856	      1.02238738	      0.32173378	     24.35302528	     -4.60264529	     -7.20271966	    -73.93313428	      0.45747388	     -0.70589627	      2.26835143	      8.38725731	      1.60155280	     -5.42327912	    -13.20302433	      1.01501144	    -14.14320519	     -6.94003732	    -11.37425530	     -2.24993165	      0.41169940
      1.71716667	      2.29654457	     -0.16225960	     -3.42656477	      1.34846174	      1.02342507	      0.32127244	     24.77315675	     -4.43187500	     -7.41915356	    -73.34367168	      0.86791993	     -0.65659763	      2.28153563	      7.79906593	      1.53456282	     -5.18104108	    -12.87404010	      1.02622529	    -14.26133000	     -6.99496212	    -11.56919393	     -2.04370555	      0.24653988
      1.72133333	      2.36371198	     -0.30693893	     -3.22822947	      1.35310225	      1.02427704	      0.32075977	     25.25222126	     -4.28164925	     -7.66226338	    -72.72901468	      1.27218239	     -0.62035402	      2.28386789	      7.31549270	      1.46440510	     -4.92879593	    -12.62380057	      1.11089520	    -14.31594909	     -7.03808789	    -11.70050836	     -1.82553201	      0.18628036
      1.72550000	      2.47651299	     -0.45469214	     -3.03338161	      1.35778773	      1.02520616	      0.32023348	     25.64851295	     -4.13890824	     -7.90826963	    -72.04876107	      1.67612697	     -0.54115618	      2.27492285	      6.76120002	      1.39251062	     -4.67357542	    -12.32689937	      1.16530388	    -14.38813379	     -7.08918582	    -11.87756465	     -1.59773722	      0.04523996
      1.72966667	      2.55849274	     -0.58062287	     -2.87306028	      1.36243061	      1.02602028	      0.31979493	     26.08118858	     -4.00192912	     -8.11774209	    -71.33949492	      2.05575400	     -0.49851136	      2.25679637	      6.24399901	      1.33133517	     -4.45892354	    -12.03720032	      1.22064533	    -14.46658913	     -7.13600394	    -12.02042862	     -1.39397596	     -0.02871496
      1.73383333	      2.63065776	     -0.70409767	     -2.67205958	      1.36704711	      1.02677176	      0.31930699	     26.49864675	     -3.88968297	     -8.36709622	    -70.58697635	      2.41821415	     -0.45538585	      2.22729193	      5.75952308	      1.26973737	     -4.21432291	    -11.78853778	      1.31009851	    -14.51738663	     -7.18344076	    -12.14956751	     -1.20891855	     -0.13749517
      1.73800000	      2.69238260	     -0.81502920	     -2.48718404	      1.37169007	      1.02747865	      0.31884063	     26.91288593	     -3.78865198	     -8.60170307	    -69.78806256	      2.76497058	     -0.40944652	      2.18421534	      5.27380201	      1.21790193	     -3.97645093	    -11.50679522	      1.37008278	    -14.59297329	     -7.23782511	    -12.26531586	     -1.02560845	     -0.24586884
      1.74216667	      2.67380860	     -0.86867420	     -2.40391324	      1.37627168	      1.02794028	      0.31866915	     27.44420025	     -3.67812056	     -8.70926323	    -68.99989718	      3.13658472	     -0.41406370	      2.17154079	      4.88457888	      1.19558209	     -3.87626431	    -11.25368781	      1.44746998	    -14.61443050	     -7.25172241	    -12.29089899	     -0.93883186	     -0.27857213
      1.74633333	      2.74936034	     -0.99776059	     -2.17507778	      1.38086734	      1.02861763	      0.31807215	     27.78430445	     -3.59927391	     -8.99892608	    -68.08636453	      3.42178975	     -0.28525643	      2.11782577	      4.39562094	      1.12649431	     -3.58160514	    -10.99184854	      1.53773810	    -14.66513123	     -7.29545012	    -12.43378387	     -0.70426884	     -0.37420639
      1.75050000	      2.80407742	     -1.07430478	     -1.98728238	      1.38549517	      1.02918931	      0.31761101	     28.14853402	     -3.54864179	     -9.23685023	    -67.16486255	      3.73739527	     -0.28455310	      2.03410477	      3.92289362	      1.09995564	     -3.35152627	    -10.72021162	      1.61212355	    -14.73594190	     -7.35569388	    -12.54192755	     -0.55607655	     -0.54863993
      1.75466667	      2.80537506	     -1.13531792	     -1.85543859	      1.39008083	      1.02960813	      0.31730210	     28.57115608	     -3.47795904	     -9.40508682	    -66.21322257	      4.01109314	     -0.21785458	      1.97002249	      3.51616193	      1.07227831	     -3.19271334	    -10.46668832	      1.69787170	    -14.75994415	     -7.39461907	    -12.58647857	     -0.43375794	     -0.59411525
      1.75883333	      2.82989755	     -1.19577660	     -1.67727450	      1.39467887	      1.03004998	      0.31689374	     28.92976532	     -3.44017802	     -9.63027927	    -65.20760464	      4.31507150	     -0.20883067	      1.86247120	      3.08482833	      1.05004452	     -2.98262999	    -10.20974271	      1.79074839	    -14.79264427	     -7.44930677	    -12.66253535	     -0.30660763	     -0.71128179
      1.76300000	      2.83879336	     -1.24070963	     -1.52616298	      1.39930286	      1.03042548	      0.31655075	     29.29117936	     -3.40228130	     -9.81863117	    -64.16471019	      4.58225886	     -0.17892468	      1.74073027	      2.65905469	      1.03730024	     -2.80838736	     -9.93369624	      1.87085942	    -14.81543259	     -7.50367144	    -12.71432882	     -0.19866296	     -0.78874991
